<?xml version="1.0" standalone="no"?><!DOCTYPE svg PUBLIC "-//W3C//DTD SVG 1.1//EN" "http://www.w3.org/Graphics/SVG/1.1/DTD/svg11.dtd"><svg t="1662535926684" class="icon" viewBox="0 0 1204 1024" version="1.1" xmlns="http://www.w3.org/2000/svg" p-id="5682" xmlns:xlink="http://www.w3.org/1999/xlink" width="235.15625" height="200"><path d="M90.352941 165.647059a75.294118 75.294118 0 0 1 75.294118-75.294118h232.101647a75.294118 75.294118 0 0 1 53.007059 21.835294l31.834353-32.075294-31.819294 32.075294 88.95247 88.244706a165.647059 165.647059 0 0 0 116.645647 48.037647H956.235294A37.647059 37.647059 0 0 1 993.882353 286.117647a45.176471 45.176471 0 1 0 90.352941 0 128 128 0 0 0-128-128H656.368941a75.294118 75.294118 0 0 1-53.007059-21.835294l-88.967529-88.244706A165.647059 165.647059 0 0 0 397.748706 0H165.647059C74.164706 0 0 74.164706 0 165.647059v692.705882c0 91.482353 74.164706 165.647059 165.647059 165.647059h799.638588a150.588235 150.588235 0 0 0 146.492235-115.712l78.893177-331.294118C1213.199059 482.364235 1141.428706 391.529412 1044.178824 391.529412H269.522824a150.588235 150.588235 0 0 0-146.492236 115.712L90.352941 644.517647V165.647059z m100.291765 768a60.235294 60.235294 0 0 1-58.578824-74.179765l78.863059-331.294118A60.235294 60.235294 0 0 1 269.552941 481.882353h774.625883a60.235294 60.235294 0 0 1 58.608941 74.179765l-78.878118 331.294117A60.235294 60.235294 0 0 1 965.270588 933.647059H190.644706z" fill="#ffffff" p-id="5683"></path></svg>